<svg width="50" height="50" viewBox="0 0 50 50" fill="none" xmlns="http://www.w3.org/2000/svg">
<path d="M20.73 0.989433C21.04 1.29944 21.245 1.62444 21.375 1.86444C21.5725 2.22694 21.72 2.61445 21.8375 2.96445C22.0625 3.63446 22.2925 4.52696 22.555 5.54447L31.755 41.1448L35.775 25.9996L35.8075 25.8746L35.815 25.8471C35.925 25.4221 36.1075 24.7121 36.5225 24.1146C36.8997 23.5649 37.4166 23.1256 38.02 22.8421C38.4975 22.6171 38.9425 22.5496 39.27 22.5246C39.5325 22.4996 39.82 22.5021 40.04 22.5021H47.5C48.163 22.5021 48.7989 22.7655 49.2678 23.2344C49.7366 23.7032 50 24.3391 50 25.0021C50 25.6652 49.7366 26.3011 49.2678 26.7699C48.7989 27.2388 48.163 27.5022 47.5 27.5022H40.55L36.04 44.4898C35.77 45.5048 35.535 46.3948 35.305 47.0648C35.1779 47.4434 35.0207 47.8113 34.835 48.1648C34.5647 48.6688 34.175 49.0988 33.7 49.4173C33.1118 49.8001 32.4245 50.0026 31.7228 50C31.021 49.9973 30.3353 49.7896 29.75 49.4023C29.2774 49.0798 28.8912 48.6463 28.625 48.1398C28.4417 47.7852 28.2871 47.4165 28.1625 47.0373C27.9375 46.3673 27.7075 45.4748 27.445 44.4573L18.245 8.857L14.225 23.9996L14.1925 24.1246L14.185 24.1521C14.075 24.5771 13.89 25.2871 13.4775 25.8846C13.1003 26.4344 12.5834 26.8736 11.98 27.1572C11.5025 27.3822 11.0575 27.4497 10.73 27.4747C10.4675 27.4997 10.18 27.4972 9.96 27.4972H2.5C1.83696 27.4972 1.20107 27.2338 0.732233 26.7649C0.263392 26.2961 0 25.6602 0 24.9971C0 24.3341 0.263392 23.6982 0.732233 23.2294C1.20107 22.7605 1.83696 22.4971 2.5 22.4971H9.45L13.96 5.50697C14.23 4.49446 14.465 3.60196 14.695 2.93695C14.815 2.58695 14.965 2.19944 15.165 1.83694C15.435 1.33207 15.8247 0.901139 16.3 0.58193C16.9763 0.141185 17.7815 -0.0585897 18.5854 0.0149035C19.3892 0.0883968 20.1448 0.433362 20.73 0.989433Z" fill="#2563EB"/>
</svg>
