<svg width="44" height="44" viewBox="0 0 44 44" fill="none" xmlns="http://www.w3.org/2000/svg">
<path d="M5.33329 15.75C4.22822 15.75 3.16842 16.1889 2.38701 16.9703C1.60561 17.7518 1.16663 18.8116 1.16663 19.9166V24.0833C1.16663 25.1884 1.60561 26.2482 2.38701 27.0296C3.16842 27.811 4.22822 28.25 5.33329 28.25H13.6666C14.2192 28.25 14.7491 28.4695 15.1398 28.8602C15.5305 29.2509 15.75 29.7808 15.75 30.3333V38.6666C15.75 39.7717 16.1889 40.8315 16.9703 41.6129C17.7518 42.3943 18.8116 42.8333 19.9166 42.8333H24.0833C25.1884 42.8333 26.2482 42.3943 27.0296 41.6129C27.811 40.8315 28.25 39.7717 28.25 38.6666V30.3333C28.25 29.7808 28.4695 29.2509 28.8602 28.8602C29.2509 28.4695 29.7808 28.25 30.3333 28.25H38.6666C39.7717 28.25 40.8315 27.811 41.6129 27.0296C42.3943 26.2482 42.8333 25.1884 42.8333 24.0833V19.9166C42.8333 18.8116 42.3943 17.7518 41.6129 16.9703C40.8315 16.1889 39.7717 15.75 38.6666 15.75H30.3333C29.7808 15.75 29.2509 15.5305 28.8602 15.1398C28.4695 14.7491 28.25 14.2192 28.25 13.6666V5.33329C28.25 4.22822 27.811 3.16842 27.0296 2.38701C26.2482 1.60561 25.1884 1.16663 24.0833 1.16663H19.9166C18.8116 1.16663 17.7518 1.60561 16.9703 2.38701C16.1889 3.16842 15.75 4.22822 15.75 5.33329V13.6666C15.75 14.2192 15.5305 14.7491 15.1398 15.1398C14.7491 15.5305 14.2192 15.75 13.6666 15.75H5.33329Z" stroke="#2563EB" stroke-width="2" stroke-linecap="round" stroke-linejoin="round"/>
</svg>
