<svg width="42" height="42" viewBox="0 0 42 42" fill="none" xmlns="http://www.w3.org/2000/svg">
<path d="M19.9167 38.6666C16.2585 38.6777 12.7297 37.3135 10.0302 34.8446C7.33079 32.3757 5.65784 28.9824 5.3432 25.3377C5.02855 21.693 6.09519 18.0632 8.33156 15.1682C10.5679 12.2731 13.8107 10.3243 17.4167 9.70829C29.2917 7.41663 32.4167 6.33329 36.5833 1.16663C38.6667 5.33329 40.75 9.87496 40.75 17.8333C40.75 29.2916 30.7917 38.6666 19.9167 38.6666Z" stroke="#2563EB" stroke-width="2" stroke-linecap="round" stroke-linejoin="round"/>
<path d="M1.16669 40.75C1.16669 34.5 5.02085 29.5833 11.75 28.25C16.7917 27.25 22 24.0833 24.0834 22" stroke="#2563EB" stroke-width="2" stroke-linecap="round" stroke-linejoin="round"/>
</svg>
