<svg width="20" height="20" viewBox="0 0 20 20" fill="none" xmlns="http://www.w3.org/2000/svg">
<path d="M9.99984 13.3333C13.2215 13.3333 15.8332 10.7217 15.8332 7.49999C15.8332 4.27833 13.2215 1.66666 9.99984 1.66666C6.77818 1.66666 4.1665 4.27833 4.1665 7.49999C4.1665 10.7217 6.77818 13.3333 9.99984 13.3333Z" stroke="#2563EB" stroke-width="1.5"/>
<path d="M6.12571 12.5L5.59488 14.4358C5.07155 16.3458 4.80988 17.3008 5.15905 17.8233C5.28155 18.0067 5.44571 18.1533 5.63655 18.2508C6.17988 18.5275 7.01988 18.09 8.69905 17.215C9.25738 16.9233 9.53738 16.7783 9.83405 16.7467C9.94433 16.7356 10.0554 16.7356 10.1657 16.7467C10.4624 16.7783 10.7415 16.9242 11.3007 17.215C12.9799 18.09 13.8199 18.5275 14.3632 18.2508C14.554 18.1533 14.7182 18.0067 14.8407 17.8233C15.1907 17.3008 14.9282 16.3458 14.4049 14.4358L13.874 12.5" stroke="#2563EB" stroke-width="1.5" stroke-linecap="round"/>
</svg>
