<svg width="40" height="40" viewBox="0 0 40 40" fill="none" xmlns="http://www.w3.org/2000/svg">
<path d="M9.13618 3.32074C8.98859 3.13089 8.8023 2.97462 8.58968 2.8623C8.37706 2.74998 8.14298 2.68419 7.90297 2.66929C7.66297 2.6544 7.42255 2.69074 7.19767 2.7759C6.97279 2.86106 6.76861 2.9931 6.59868 3.16324L4.01368 5.75074C2.80618 6.96074 2.36118 8.67324 2.88868 10.1757C5.0805 16.3935 8.64156 22.0393 13.3087 26.6957C17.9652 31.3629 23.6109 34.9239 29.8287 37.1157C31.3312 37.6432 33.0437 37.1982 34.2537 35.9907L36.8387 33.4057C37.0088 33.2358 37.1409 33.0316 37.226 32.8067C37.3112 32.5819 37.3475 32.3414 37.3326 32.1014C37.3177 31.8614 37.2519 31.6274 37.1396 31.4147C37.0273 31.2021 36.871 31.0158 36.6812 30.8682L30.9137 26.3832C30.7107 26.2263 30.4748 26.1173 30.2237 26.0644C29.9725 26.0116 29.7127 26.0163 29.4637 26.0782L23.9887 27.4457C23.2578 27.6271 22.4925 27.6168 21.7668 27.4158C21.0411 27.2148 20.3795 26.8298 19.8462 26.2982L13.7062 20.1557C13.1741 19.6226 12.7887 18.9612 12.5873 18.2355C12.3858 17.5098 12.3751 16.7443 12.5562 16.0132L13.9262 10.5382C13.9881 10.2892 13.9928 10.0294 13.94 9.77826C13.8871 9.52714 13.7782 9.29124 13.6212 9.08824L9.13618 3.32074ZM4.71118 1.27824C5.14866 0.840611 5.67425 0.501063 6.25303 0.282141C6.8318 0.0632177 7.45053 -0.0300706 8.06813 0.00847009C8.68573 0.0470108 9.28806 0.216499 9.83513 0.505679C10.3822 0.79486 10.8615 1.19712 11.2412 1.68574L15.7262 7.45074C16.5487 8.50824 16.8387 9.88574 16.5137 11.1857L15.1462 16.6607C15.076 16.9443 15.08 17.2412 15.158 17.5228C15.2359 17.8044 15.3851 18.0611 15.5912 18.2682L21.7337 24.4107C21.941 24.6172 22.1982 24.7667 22.4803 24.8446C22.7623 24.9226 23.0597 24.9264 23.3437 24.8557L28.8162 23.4882C29.4578 23.3288 30.1272 23.3168 30.7741 23.4532C31.421 23.5896 32.0286 23.8708 32.5512 24.2757L38.3162 28.7607C40.3887 30.3732 40.5787 33.4357 38.7237 35.2882L36.1387 37.8732C34.2887 39.7232 31.5237 40.5357 28.9462 39.6282C22.3479 37.3097 16.3575 33.5326 11.4212 28.5782C6.46711 23.6426 2.69006 17.6532 0.371177 11.0557C-0.533823 8.48074 0.278677 5.71324 2.12868 3.86324L4.71118 1.27824Z" fill="#2563EB"/>
</svg>
