<svg width="50" height="50" viewBox="0 0 50 50" fill="none" xmlns="http://www.w3.org/2000/svg">
<path d="M18.1818 6.81818L23.8636 19.3182L36.3636 25L23.8636 30.6818L18.1818 43.1818L12.5 30.6818L0 25L12.5 19.3182L18.1818 6.81818ZM18.1818 17.7955L15.9091 22.7273L10.9773 25L15.9091 27.2727L18.1818 32.2045L20.4545 27.2727L25.3864 25L20.4545 22.7273L18.1818 17.7955ZM40.9091 18.1818L38.0455 11.9545L31.8182 9.09091L38.0455 6.25L40.9091 0L43.75 6.25L50 9.09091L43.75 11.9545L40.9091 18.1818ZM40.9091 50L38.0455 43.7727L31.8182 40.9091L38.0455 38.0682L40.9091 31.8182L43.75 38.0682L50 40.9091L43.75 43.7727L40.9091 50Z" fill="#2563EB"/>
</svg>
