<svg width="50" height="50" viewBox="0 0 50 50" fill="none" xmlns="http://www.w3.org/2000/svg">
<path d="M12.5 0C5 0 0 7.5 0 15C0 20.275 2.5 27.5 5 30C7.5 32.5 10 50 15 50C26.35 50 20 32.5 25 32.5C30 32.5 23.65 50 35 50C40 50 42.5 32.5 45 30C47.5 27.5 50 20.275 50 15C50 7.5 45 0 37.5 0C30 0 30 2.5 25 2.5C20 2.5 20 0 12.5 0ZM12.5 5C17.5 5 20 7.5 25 7.5C30 7.5 32.5 5 37.5 5C41.675 5 45 10 45 15C45 19.375 42.85 25.275 40.475 27.65C38.325 29.8 35.15 44.85 33.75 44.85C33.225 44.85 32.5 42.2 32.5 38.975C32.5 33.875 31.075 27.5 25 27.5C18.925 27.5 17.5 33.875 17.5 38.975C17.5 42.2 16.775 44.85 16.25 44.85C14.85 44.85 11.675 29.8 9.525 27.65C7.15 25.275 5 19.375 5 15C5 10 8.325 5 12.5 5Z" fill="#2563EB"/>
</svg>
