<svg width="50" height="50" viewBox="0 0 50 50" fill="none" xmlns="http://www.w3.org/2000/svg">
<path d="M21.7969 3.7402L20.7715 10.0586L16.6992 10.7226C16.4648 10.791 16.4941 11.0742 16.6992 11.123L20.7715 11.7871L21.7969 18.1054C21.8652 18.33 22.168 18.291 22.1973 18.1054L23.2324 11.7871L27.3047 11.123C27.5293 11.0449 27.5 10.7617 27.3047 10.7226L23.2324 10.0586L22.1973 3.7402C22.1289 3.51071 21.8359 3.55563 21.7969 3.7402ZM44.0723 7.35348L43.4473 11.0156L40.9766 11.3965C40.752 11.4746 40.7812 11.7675 40.9766 11.8066L43.4473 12.1875L44.0723 15.8496C44.1504 16.084 44.4238 16.0547 44.4727 15.8496L45.0977 12.1875L47.5684 11.8066C47.793 11.7285 47.7637 11.4355 47.5684 11.3965L45.0977 11.0156L44.4727 7.35348C44.4043 7.1279 44.1113 7.16403 44.0723 7.35348ZM35.7715 16.3574C37.4414 19.873 36.2598 21.1816 25.6152 21.1816C14.9805 21.1816 18.584 26.6797 18.584 26.6797H21.1328C21.0742 21.9433 41.0645 24.209 39.4238 18.8965C47.1094 25.3711 23.0664 22.6172 24.6973 26.6797H40.2344C44.8535 26.6797 45.5566 18.4375 35.7715 16.3574ZM9.03613 17.5097L8.41016 21.1718L5.94531 21.5625C5.70801 21.6308 5.75391 21.9238 5.94531 21.9629L8.41016 22.3437L9.03613 26.0156C9.10742 26.2402 9.39941 26.2011 9.43652 26.0156L10.0586 22.3437L12.5293 21.9629C12.7539 21.8945 12.7148 21.5918 12.5293 21.5625L10.0586 21.1718L9.43652 17.5097C9.36523 17.2851 9.07324 17.3242 9.03613 17.5097ZM17.3535 27.8808L17.8418 36.6992H19.5996L19.8926 30.3711L20.1855 36.6992H21.8066L22.0996 30.3711L22.3926 36.6992H24.0039L24.2969 30.3711L24.5898 36.6992H26.2109L26.5039 30.3711L26.7969 36.6992H28.4082L28.7012 30.3711L28.9941 36.6992H30.6152L30.9082 30.3711L31.2012 36.6992H32.8125L33.1055 30.3711L33.3984 36.6992H35.0195L35.3125 30.3711L35.6055 36.6992H37.2266L37.5195 30.3711L37.8125 36.6992H39.4238L39.7168 30.3711L40.0098 36.6992H42.002L42.4902 27.8808H17.3535ZM3.15039 38.4082V42.6074H9.23242C9.80469 42.6074 10.3711 42.539 10.918 42.4121C12.7832 41.9922 14.6387 42.0117 16.4941 42.4218C17.041 42.539 17.5977 42.6074 18.1543 42.6074H41.9629C42.7344 42.6074 43.3691 41.9726 43.3691 41.1914V38.4082H3.15039Z" fill="#2563EB"/>
</svg>
