<svg width="35" height="35" viewBox="0 0 35 35" fill="none" xmlns="http://www.w3.org/2000/svg">
<path d="M17.5 0C27.1653 0 35 7.83474 35 17.5C35 27.1652 27.1653 35 17.5 35C14.4073 35.0053 11.369 34.1868 8.69752 32.6287L0.00702704 35L2.37303 26.306C0.813704 23.6336 -0.00539284 20.594 2.67202e-05 17.5C2.67202e-05 7.83474 7.83477 0 17.5 0ZM11.536 9.27499L11.186 9.28899C10.9597 9.30459 10.7386 9.36402 10.535 9.46399C10.3453 9.57164 10.172 9.70601 10.0205 9.86299C9.81052 10.0607 9.69152 10.2322 9.56377 10.3985C8.91648 11.2401 8.56797 12.2733 8.57327 13.335C8.57677 14.1925 8.80077 15.0272 9.15077 15.8077C9.86652 17.3862 11.0443 19.0575 12.5983 20.6062C12.9728 20.979 13.3403 21.3535 13.7358 21.7017C15.6668 23.4017 17.9678 24.6277 20.4558 25.2822L21.4498 25.4345C21.7735 25.452 22.0973 25.4275 22.4228 25.4117C22.9323 25.3849 23.4299 25.2469 23.8805 25.0075C24.1095 24.8891 24.3331 24.7606 24.5508 24.6225C24.5508 24.6225 24.6248 24.5723 24.7695 24.465C25.0058 24.29 25.151 24.1657 25.347 23.961C25.494 23.8093 25.6165 23.6332 25.7145 23.4325C25.851 23.1472 25.9875 22.603 26.0435 22.1497C26.0855 21.8032 26.0733 21.6142 26.068 21.497C26.061 21.3097 25.9053 21.1155 25.7355 21.0332L24.717 20.5765C24.717 20.5765 23.1945 19.9132 22.2635 19.4897C22.1661 19.4473 22.0617 19.423 21.9555 19.418C21.8358 19.4055 21.7147 19.4188 21.6006 19.4572C21.4865 19.4955 21.3819 19.5579 21.294 19.6402C21.2853 19.6367 21.168 19.7365 19.9028 21.2695C19.8301 21.3671 19.7301 21.4408 19.6154 21.4813C19.5007 21.5218 19.3766 21.5273 19.2588 21.497C19.1447 21.4666 19.033 21.428 18.9245 21.3815C18.7075 21.2905 18.6323 21.2555 18.4835 21.1925C17.4788 20.7548 16.5488 20.1626 15.7273 19.4372C15.5068 19.2447 15.302 19.0347 15.092 18.8317C14.4036 18.1723 13.8036 17.4265 13.307 16.6127L13.2038 16.4465C13.1307 16.3341 13.0708 16.2138 13.0253 16.0877C12.9588 15.8305 13.132 15.624 13.132 15.624C13.132 15.624 13.5573 15.1585 13.755 14.9065C13.9475 14.6615 14.1103 14.4235 14.2153 14.2537C14.4218 13.9212 14.4865 13.58 14.378 13.3157C13.888 12.1187 13.3817 10.9282 12.859 9.74399C12.7558 9.50949 12.4495 9.34149 12.1713 9.30824C12.0768 9.29658 11.9823 9.28724 11.8878 9.28024C11.6528 9.26677 11.4172 9.2691 11.1825 9.28724L11.536 9.27499Z" fill="white"/>
</svg>
